<svg width="374" height="258" fill="none" xmlns="http://www.w3.org/2000/svg"><g clip-path="url(#a)"><path fill-rule="evenodd" clip-rule="evenodd" d="M119.849 74.883a6.54 6.54 0 0 1 6.488-6.495h117.836a6.493 6.493 0 0 1 6.488 6.495v104.742a6.541 6.541 0 0 1-6.488 6.495H126.337a6.495 6.495 0 0 1-6.488-6.495V74.883Zm117.732 6.587h-104.65v91.569l60.775-60.789a6.542 6.542 0 0 1 9.249 0l34.626 34.692V81.47Zm-91.571 26.162c0 7.225 5.857 13.081 13.082 13.081 7.224 0 13.081-5.856 13.081-13.081s-5.857-13.081-13.081-13.081c-7.225 0-13.082 5.856-13.082 13.081Z" fill="#E0E0E0"/></g><defs><clipPath id="a"><path fill="#fff" d="M0 0h374v258H0z"/></clipPath></defs></svg>